<?xml version="1.0" encoding="UTF-8"?>
<svg width="200px" height="200px" viewBox="0 0 200 200" version="1.1" xmlns="http://www.w3.org/2000/svg" xmlns:xlink="http://www.w3.org/1999/xlink">
    <title>Group</title>
    <g id="Page-1" stroke="none" stroke-width="1" fill="none" fill-rule="evenodd">
        <g id="Group" transform="translate(0.000000, 0.000000)">
            <rect id="Rectangle" fill="#006D85" x="0" y="0" width="200" height="200" rx="5"></rect>
            <g id="icon-mask" transform="translate(58.000000, 19.000000)" fill="#FFFFFF" fill-rule="nonzero">
                <path d="M64.5462086,73.5898178 C58.1846016,70.0766894 51.4212089,67.4000201 44.7247805,64.6229757 C40.8408521,63.0169741 37.1243343,61.1433056 33.8430844,58.533553 C27.381031,53.3809646 28.6198702,45.016373 36.1868343,41.7039948 C38.3296914,40.7671605 40.5729949,40.4660352 42.8497806,40.3322017 C51.6221018,39.8637846 59.9591551,41.4697862 67.8944228,45.28404 C71.8453155,47.1911668 73.1511191,46.5889162 74.4904048,42.4735372 C75.8966547,38.1239496 77.0685297,33.7074452 78.3743332,29.3243992 C79.2448689,26.380063 78.1734404,24.4394778 75.3944226,23.2015182 C70.305137,20.9598077 65.0819229,19.3538061 59.5908516,18.4838886 C52.4256732,17.3797625 52.4256732,17.3463041 52.3921911,10.1527554 C52.3587089,0.014870385 52.3587089,0.014870385 42.1801377,0.014870385 C40.7069235,0.014870385 39.2337093,-0.0185879813 37.760495,0.014870385 C33.0060308,0.14870385 32.2024594,0.985163007 32.0685309,5.76970938 C32.0015666,7.91104483 32.0685309,10.0523803 32.0350487,12.2271741 C32.0015666,18.5842637 31.9680844,18.4838886 25.8743346,20.6921407 C11.1421921,26.0454793 2.03504951,36.0829892 1.0640674,52.143005 C0.193531704,66.3628107 7.62656722,75.9653618 19.3118348,82.9581604 C26.5104953,87.2742896 34.4792451,89.8171255 42.1131735,93.1964205 C45.0930841,94.5012967 47.9390662,96.0069232 50.4167447,98.0813419 C57.7493338,104.137306 56.4100481,114.208274 47.7046912,118.022528 C43.0506734,120.063489 38.1287986,120.565364 33.0729951,119.929655 C25.271656,118.959362 17.8051384,116.918402 10.7738886,113.27144 C6.65558511,111.130105 5.45022799,111.698897 4.04397803,116.14886 C2.83862092,119.996572 1.76719238,123.877742 0.695763833,127.758913 C-0.743968272,132.978418 -0.208254,134.216378 4.78058516,136.658838 C11.1421921,139.737008 17.939067,141.309551 24.8698703,142.413677 C30.2939773,143.283595 30.4613881,143.517803 30.5283523,149.138809 C30.5618345,151.681645 30.5618345,154.257939 30.5953166,156.800775 C30.6287988,160.012778 32.1689773,161.886446 35.4837094,161.953363 C39.2337093,162.02028 43.0171913,162.02028 46.7671912,161.919905 C49.8475483,161.852988 51.4212089,160.18007 51.4212089,157.068442 C51.4212089,153.588772 51.5886196,150.075643 51.4546911,146.595973 C51.2872804,143.049386 52.8274589,141.242634 56.2426374,140.3058 C64.1109407,138.164465 70.8073691,133.948711 75.963619,127.658538 C90.2939758,110.260187 84.8363866,84.7983705 64.5462086,73.5898178 Z" id="Path"></path>
            </g>
        </g>
    </g>
</svg>